<mxfile host="app.diagrams.net" modified="2021-11-29T21:56:42.508Z" agent="5.0 (Windows NT 10.0; Win64; x64) AppleWebKit/537.36 (KHTML, like Gecko) Chrome/96.0.4664.45 Safari/537.36" etag="kz1TzGK8NWOLsjGeIWTf" version="15.8.7" type="github">
  <diagram id="UhAk2YxEdr_XJ9JBLaz_" name="Page-1">
    <mxGraphModel dx="395" dy="221" grid="1" gridSize="10" guides="1" tooltips="1" connect="1" arrows="1" fold="1" page="1" pageScale="1" pageWidth="827" pageHeight="1169" math="1" shadow="0">
      <root>
        <mxCell id="0" />
        <mxCell id="1" parent="0" />
        <mxCell id="Ek_JF4wU0ReZw1fzb51k-53" value="" style="group" vertex="1" connectable="0" parent="1">
          <mxGeometry x="30" y="30" width="220" height="180" as="geometry" />
        </mxCell>
        <mxCell id="Ek_JF4wU0ReZw1fzb51k-48" value="" style="rounded=0;whiteSpace=wrap;html=1;" vertex="1" parent="Ek_JF4wU0ReZw1fzb51k-53">
          <mxGeometry width="220" height="180" as="geometry" />
        </mxCell>
        <mxCell id="Ek_JF4wU0ReZw1fzb51k-2" value="A" style="rounded=1;arcSize=10;whiteSpace=wrap;html=1;align=center;" vertex="1" parent="Ek_JF4wU0ReZw1fzb51k-53">
          <mxGeometry x="10" y="10" width="40" height="40" as="geometry" />
        </mxCell>
        <mxCell id="Ek_JF4wU0ReZw1fzb51k-3" value="B" style="rounded=1;arcSize=10;whiteSpace=wrap;html=1;align=center;" vertex="1" parent="Ek_JF4wU0ReZw1fzb51k-53">
          <mxGeometry x="170" y="10" width="40" height="40" as="geometry" />
        </mxCell>
        <mxCell id="Ek_JF4wU0ReZw1fzb51k-4" value="R" style="shape=rhombus;perimeter=rhombusPerimeter;whiteSpace=wrap;html=1;align=center;" vertex="1" parent="Ek_JF4wU0ReZw1fzb51k-53">
          <mxGeometry x="90" y="10" width="40" height="40" as="geometry" />
        </mxCell>
        <mxCell id="Ek_JF4wU0ReZw1fzb51k-5" value="" style="edgeStyle=entityRelationEdgeStyle;fontSize=12;html=1;endArrow=ERzeroToMany;endFill=1;rounded=0;exitX=0;exitY=0.5;exitDx=0;exitDy=0;entryX=1;entryY=0.5;entryDx=0;entryDy=0;" edge="1" parent="Ek_JF4wU0ReZw1fzb51k-53" source="Ek_JF4wU0ReZw1fzb51k-4" target="Ek_JF4wU0ReZw1fzb51k-2">
          <mxGeometry width="100" height="100" relative="1" as="geometry">
            <mxPoint x="330" y="430" as="sourcePoint" />
            <mxPoint x="430" y="330" as="targetPoint" />
          </mxGeometry>
        </mxCell>
        <mxCell id="Ek_JF4wU0ReZw1fzb51k-6" value="" style="edgeStyle=entityRelationEdgeStyle;fontSize=12;html=1;endArrow=ERzeroToMany;endFill=1;rounded=0;exitX=1;exitY=0.5;exitDx=0;exitDy=0;entryX=0;entryY=0.5;entryDx=0;entryDy=0;" edge="1" parent="Ek_JF4wU0ReZw1fzb51k-53" source="Ek_JF4wU0ReZw1fzb51k-4" target="Ek_JF4wU0ReZw1fzb51k-3">
          <mxGeometry width="100" height="100" relative="1" as="geometry">
            <mxPoint x="190" y="140" as="sourcePoint" />
            <mxPoint x="150" y="140" as="targetPoint" />
          </mxGeometry>
        </mxCell>
        <mxCell id="Ek_JF4wU0ReZw1fzb51k-25" value="" style="rounded=1;whiteSpace=wrap;html=1;" vertex="1" parent="Ek_JF4wU0ReZw1fzb51k-53">
          <mxGeometry x="50" y="90" width="40" height="80" as="geometry" />
        </mxCell>
        <mxCell id="Ek_JF4wU0ReZw1fzb51k-27" value="" style="ellipse;whiteSpace=wrap;html=1;aspect=fixed;" vertex="1" parent="Ek_JF4wU0ReZw1fzb51k-53">
          <mxGeometry x="65" y="96" width="10" height="10" as="geometry" />
        </mxCell>
        <mxCell id="Ek_JF4wU0ReZw1fzb51k-28" value="" style="ellipse;whiteSpace=wrap;html=1;aspect=fixed;" vertex="1" parent="Ek_JF4wU0ReZw1fzb51k-53">
          <mxGeometry x="65" y="115" width="10" height="10" as="geometry" />
        </mxCell>
        <mxCell id="Ek_JF4wU0ReZw1fzb51k-31" value="" style="ellipse;whiteSpace=wrap;html=1;aspect=fixed;" vertex="1" parent="Ek_JF4wU0ReZw1fzb51k-53">
          <mxGeometry x="65" y="136" width="10" height="10" as="geometry" />
        </mxCell>
        <mxCell id="Ek_JF4wU0ReZw1fzb51k-32" value="" style="ellipse;whiteSpace=wrap;html=1;aspect=fixed;" vertex="1" parent="Ek_JF4wU0ReZw1fzb51k-53">
          <mxGeometry x="65" y="156" width="10" height="10" as="geometry" />
        </mxCell>
        <mxCell id="Ek_JF4wU0ReZw1fzb51k-38" value="" style="rounded=1;whiteSpace=wrap;html=1;" vertex="1" parent="Ek_JF4wU0ReZw1fzb51k-53">
          <mxGeometry x="130" y="90" width="40" height="80" as="geometry" />
        </mxCell>
        <mxCell id="Ek_JF4wU0ReZw1fzb51k-39" value="" style="ellipse;whiteSpace=wrap;html=1;aspect=fixed;" vertex="1" parent="Ek_JF4wU0ReZw1fzb51k-53">
          <mxGeometry x="145" y="96" width="10" height="10" as="geometry" />
        </mxCell>
        <mxCell id="Ek_JF4wU0ReZw1fzb51k-40" value="" style="ellipse;whiteSpace=wrap;html=1;aspect=fixed;" vertex="1" parent="Ek_JF4wU0ReZw1fzb51k-53">
          <mxGeometry x="145" y="115" width="10" height="10" as="geometry" />
        </mxCell>
        <mxCell id="Ek_JF4wU0ReZw1fzb51k-41" value="" style="ellipse;whiteSpace=wrap;html=1;aspect=fixed;" vertex="1" parent="Ek_JF4wU0ReZw1fzb51k-53">
          <mxGeometry x="145" y="136" width="10" height="10" as="geometry" />
        </mxCell>
        <mxCell id="Ek_JF4wU0ReZw1fzb51k-42" value="" style="ellipse;whiteSpace=wrap;html=1;aspect=fixed;" vertex="1" parent="Ek_JF4wU0ReZw1fzb51k-53">
          <mxGeometry x="145" y="156" width="10" height="10" as="geometry" />
        </mxCell>
        <mxCell id="Ek_JF4wU0ReZw1fzb51k-43" value="" style="endArrow=classic;html=1;rounded=0;exitX=1;exitY=0.5;exitDx=0;exitDy=0;entryX=0;entryY=0.5;entryDx=0;entryDy=0;" edge="1" parent="Ek_JF4wU0ReZw1fzb51k-53" source="Ek_JF4wU0ReZw1fzb51k-27" target="Ek_JF4wU0ReZw1fzb51k-39">
          <mxGeometry width="50" height="50" relative="1" as="geometry">
            <mxPoint x="170" y="160" as="sourcePoint" />
            <mxPoint x="220" y="110" as="targetPoint" />
            <Array as="points" />
          </mxGeometry>
        </mxCell>
        <mxCell id="Ek_JF4wU0ReZw1fzb51k-45" style="rounded=0;orthogonalLoop=1;jettySize=auto;html=1;exitX=1;exitY=0.5;exitDx=0;exitDy=0;entryX=0;entryY=1;entryDx=0;entryDy=0;" edge="1" parent="Ek_JF4wU0ReZw1fzb51k-53" source="Ek_JF4wU0ReZw1fzb51k-28" target="Ek_JF4wU0ReZw1fzb51k-39">
          <mxGeometry relative="1" as="geometry">
            <Array as="points">
              <mxPoint x="120" y="120" />
            </Array>
          </mxGeometry>
        </mxCell>
        <mxCell id="Ek_JF4wU0ReZw1fzb51k-46" style="edgeStyle=none;rounded=0;orthogonalLoop=1;jettySize=auto;html=1;exitX=1;exitY=0.5;exitDx=0;exitDy=0;entryX=0;entryY=0.5;entryDx=0;entryDy=0;" edge="1" parent="Ek_JF4wU0ReZw1fzb51k-53" source="Ek_JF4wU0ReZw1fzb51k-31" target="Ek_JF4wU0ReZw1fzb51k-41">
          <mxGeometry relative="1" as="geometry" />
        </mxCell>
        <mxCell id="Ek_JF4wU0ReZw1fzb51k-47" style="edgeStyle=none;rounded=0;orthogonalLoop=1;jettySize=auto;html=1;exitX=1;exitY=0;exitDx=0;exitDy=0;entryX=0;entryY=1;entryDx=0;entryDy=0;" edge="1" parent="Ek_JF4wU0ReZw1fzb51k-53" source="Ek_JF4wU0ReZw1fzb51k-31" target="Ek_JF4wU0ReZw1fzb51k-40">
          <mxGeometry relative="1" as="geometry">
            <Array as="points">
              <mxPoint x="80" y="130" />
              <mxPoint x="140" y="130" />
            </Array>
          </mxGeometry>
        </mxCell>
        <mxCell id="Ek_JF4wU0ReZw1fzb51k-52" value="치ltal치nos rel치ci칩" style="text;html=1;strokeColor=none;fillColor=none;align=center;verticalAlign=middle;whiteSpace=wrap;rounded=0;" vertex="1" parent="Ek_JF4wU0ReZw1fzb51k-53">
          <mxGeometry x="10" y="50" width="200" height="40" as="geometry" />
        </mxCell>
        <mxCell id="Ek_JF4wU0ReZw1fzb51k-54" value="" style="group;container=1;" vertex="1" connectable="0" parent="1">
          <mxGeometry x="270" y="30" width="220" height="180" as="geometry" />
        </mxCell>
        <mxCell id="Ek_JF4wU0ReZw1fzb51k-55" value="" style="rounded=0;whiteSpace=wrap;html=1;" vertex="1" parent="Ek_JF4wU0ReZw1fzb51k-54">
          <mxGeometry width="220" height="180" as="geometry" />
        </mxCell>
        <mxCell id="Ek_JF4wU0ReZw1fzb51k-56" value="A" style="rounded=1;arcSize=10;whiteSpace=wrap;html=1;align=center;" vertex="1" parent="Ek_JF4wU0ReZw1fzb51k-54">
          <mxGeometry x="10" y="10" width="40" height="40" as="geometry" />
        </mxCell>
        <mxCell id="Ek_JF4wU0ReZw1fzb51k-57" value="B" style="rounded=1;arcSize=10;whiteSpace=wrap;html=1;align=center;" vertex="1" parent="Ek_JF4wU0ReZw1fzb51k-54">
          <mxGeometry x="170" y="10" width="40" height="40" as="geometry" />
        </mxCell>
        <mxCell id="Ek_JF4wU0ReZw1fzb51k-58" value="R" style="shape=rhombus;perimeter=rhombusPerimeter;whiteSpace=wrap;html=1;align=center;" vertex="1" parent="Ek_JF4wU0ReZw1fzb51k-54">
          <mxGeometry x="90" y="10" width="40" height="40" as="geometry" />
        </mxCell>
        <mxCell id="Ek_JF4wU0ReZw1fzb51k-59" value="" style="edgeStyle=entityRelationEdgeStyle;fontSize=12;html=1;endArrow=ERzeroToMany;endFill=1;rounded=0;exitX=0;exitY=0.5;exitDx=0;exitDy=0;entryX=1;entryY=0.5;entryDx=0;entryDy=0;" edge="1" parent="Ek_JF4wU0ReZw1fzb51k-54" source="Ek_JF4wU0ReZw1fzb51k-58" target="Ek_JF4wU0ReZw1fzb51k-56">
          <mxGeometry width="100" height="100" relative="1" as="geometry">
            <mxPoint x="330" y="430" as="sourcePoint" />
            <mxPoint x="430" y="330" as="targetPoint" />
          </mxGeometry>
        </mxCell>
        <mxCell id="Ek_JF4wU0ReZw1fzb51k-60" value="" style="edgeStyle=entityRelationEdgeStyle;fontSize=12;html=1;endArrow=ERzeroToMany;endFill=1;rounded=0;exitX=1;exitY=0.5;exitDx=0;exitDy=0;entryX=0;entryY=0.5;entryDx=0;entryDy=0;" edge="1" parent="Ek_JF4wU0ReZw1fzb51k-54" source="Ek_JF4wU0ReZw1fzb51k-58" target="Ek_JF4wU0ReZw1fzb51k-57">
          <mxGeometry width="100" height="100" relative="1" as="geometry">
            <mxPoint x="190" y="140" as="sourcePoint" />
            <mxPoint x="150" y="140" as="targetPoint" />
          </mxGeometry>
        </mxCell>
        <mxCell id="Ek_JF4wU0ReZw1fzb51k-61" value="" style="rounded=1;whiteSpace=wrap;html=1;" vertex="1" parent="Ek_JF4wU0ReZw1fzb51k-54">
          <mxGeometry x="50" y="90" width="40" height="80" as="geometry" />
        </mxCell>
        <mxCell id="Ek_JF4wU0ReZw1fzb51k-62" value="" style="ellipse;whiteSpace=wrap;html=1;aspect=fixed;" vertex="1" parent="Ek_JF4wU0ReZw1fzb51k-54">
          <mxGeometry x="65" y="96" width="10" height="10" as="geometry" />
        </mxCell>
        <mxCell id="Ek_JF4wU0ReZw1fzb51k-63" value="" style="ellipse;whiteSpace=wrap;html=1;aspect=fixed;" vertex="1" parent="Ek_JF4wU0ReZw1fzb51k-54">
          <mxGeometry x="65" y="115" width="10" height="10" as="geometry" />
        </mxCell>
        <mxCell id="Ek_JF4wU0ReZw1fzb51k-64" value="" style="ellipse;whiteSpace=wrap;html=1;aspect=fixed;" vertex="1" parent="Ek_JF4wU0ReZw1fzb51k-54">
          <mxGeometry x="65" y="136" width="10" height="10" as="geometry" />
        </mxCell>
        <mxCell id="Ek_JF4wU0ReZw1fzb51k-65" value="" style="ellipse;whiteSpace=wrap;html=1;aspect=fixed;" vertex="1" parent="Ek_JF4wU0ReZw1fzb51k-54">
          <mxGeometry x="65" y="156" width="10" height="10" as="geometry" />
        </mxCell>
        <mxCell id="Ek_JF4wU0ReZw1fzb51k-66" value="" style="rounded=1;whiteSpace=wrap;html=1;" vertex="1" parent="Ek_JF4wU0ReZw1fzb51k-54">
          <mxGeometry x="130" y="90" width="40" height="80" as="geometry" />
        </mxCell>
        <mxCell id="Ek_JF4wU0ReZw1fzb51k-67" value="" style="ellipse;whiteSpace=wrap;html=1;aspect=fixed;" vertex="1" parent="Ek_JF4wU0ReZw1fzb51k-54">
          <mxGeometry x="145" y="96" width="10" height="10" as="geometry" />
        </mxCell>
        <mxCell id="Ek_JF4wU0ReZw1fzb51k-68" value="" style="ellipse;whiteSpace=wrap;html=1;aspect=fixed;" vertex="1" parent="Ek_JF4wU0ReZw1fzb51k-54">
          <mxGeometry x="145" y="115" width="10" height="10" as="geometry" />
        </mxCell>
        <mxCell id="Ek_JF4wU0ReZw1fzb51k-69" value="" style="ellipse;whiteSpace=wrap;html=1;aspect=fixed;" vertex="1" parent="Ek_JF4wU0ReZw1fzb51k-54">
          <mxGeometry x="145" y="136" width="10" height="10" as="geometry" />
        </mxCell>
        <mxCell id="Ek_JF4wU0ReZw1fzb51k-70" value="" style="ellipse;whiteSpace=wrap;html=1;aspect=fixed;" vertex="1" parent="Ek_JF4wU0ReZw1fzb51k-54">
          <mxGeometry x="145" y="156" width="10" height="10" as="geometry" />
        </mxCell>
        <mxCell id="Ek_JF4wU0ReZw1fzb51k-71" value="" style="endArrow=classic;html=1;rounded=0;exitX=1;exitY=0.5;exitDx=0;exitDy=0;entryX=0;entryY=0.5;entryDx=0;entryDy=0;" edge="1" parent="Ek_JF4wU0ReZw1fzb51k-54" source="Ek_JF4wU0ReZw1fzb51k-62" target="Ek_JF4wU0ReZw1fzb51k-67">
          <mxGeometry width="50" height="50" relative="1" as="geometry">
            <mxPoint x="170" y="160" as="sourcePoint" />
            <mxPoint x="220" y="110" as="targetPoint" />
            <Array as="points" />
          </mxGeometry>
        </mxCell>
        <mxCell id="Ek_JF4wU0ReZw1fzb51k-72" style="rounded=0;orthogonalLoop=1;jettySize=auto;html=1;exitX=1;exitY=0.5;exitDx=0;exitDy=0;entryX=0;entryY=1;entryDx=0;entryDy=0;" edge="1" parent="Ek_JF4wU0ReZw1fzb51k-54" source="Ek_JF4wU0ReZw1fzb51k-63" target="Ek_JF4wU0ReZw1fzb51k-67">
          <mxGeometry relative="1" as="geometry">
            <Array as="points">
              <mxPoint x="120" y="120" />
            </Array>
          </mxGeometry>
        </mxCell>
        <mxCell id="Ek_JF4wU0ReZw1fzb51k-73" style="edgeStyle=none;rounded=0;orthogonalLoop=1;jettySize=auto;html=1;exitX=1;exitY=0.5;exitDx=0;exitDy=0;entryX=0;entryY=0.5;entryDx=0;entryDy=0;" edge="1" parent="Ek_JF4wU0ReZw1fzb51k-54" source="Ek_JF4wU0ReZw1fzb51k-64" target="Ek_JF4wU0ReZw1fzb51k-69">
          <mxGeometry relative="1" as="geometry" />
        </mxCell>
        <mxCell id="Ek_JF4wU0ReZw1fzb51k-74" style="edgeStyle=none;rounded=0;orthogonalLoop=1;jettySize=auto;html=1;exitX=1;exitY=0;exitDx=0;exitDy=0;entryX=0;entryY=1;entryDx=0;entryDy=0;" edge="1" parent="Ek_JF4wU0ReZw1fzb51k-54" source="Ek_JF4wU0ReZw1fzb51k-64" target="Ek_JF4wU0ReZw1fzb51k-68">
          <mxGeometry relative="1" as="geometry">
            <Array as="points">
              <mxPoint x="80" y="130" />
              <mxPoint x="140" y="130" />
            </Array>
          </mxGeometry>
        </mxCell>
        <mxCell id="Ek_JF4wU0ReZw1fzb51k-75" value="baldefini치lt rel치ci칩" style="text;html=1;strokeColor=none;fillColor=none;align=center;verticalAlign=middle;whiteSpace=wrap;rounded=0;" vertex="1" parent="Ek_JF4wU0ReZw1fzb51k-54">
          <mxGeometry x="10" y="50" width="200" height="40" as="geometry" />
        </mxCell>
        <mxCell id="Ek_JF4wU0ReZw1fzb51k-78" value="" style="endArrow=none;html=1;rounded=0;fillColor=#f8cecc;strokeColor=#b85450;" edge="1" parent="Ek_JF4wU0ReZw1fzb51k-54">
          <mxGeometry width="50" height="50" relative="1" as="geometry">
            <mxPoint x="65" y="166" as="sourcePoint" />
            <mxPoint x="75" y="156" as="targetPoint" />
          </mxGeometry>
        </mxCell>
        <mxCell id="Ek_JF4wU0ReZw1fzb51k-79" value="" style="endArrow=none;html=1;rounded=0;fillColor=#f8cecc;strokeColor=#b85450;" edge="1" parent="Ek_JF4wU0ReZw1fzb51k-54">
          <mxGeometry width="50" height="50" relative="1" as="geometry">
            <mxPoint x="75" y="166" as="sourcePoint" />
            <mxPoint x="65" y="156" as="targetPoint" />
          </mxGeometry>
        </mxCell>
      </root>
    </mxGraphModel>
  </diagram>
</mxfile>
